<?xml version="1.0" encoding="UTF-8"?>
<svg width="24px" height="21px" viewBox="0 0 24 21" version="1.1" xmlns="http://www.w3.org/2000/svg" xmlns:xlink="http://www.w3.org/1999/xlink">
    <!-- Generator: Sketch 50.2 (55047) - http://www.bohemiancoding.com/sketch -->
    <title>Tab Bar Icons/Timeline/Not Active</title>
    <desc>Created with Sketch.</desc>
    <defs></defs>
    <g id="Symbols" stroke="none" stroke-width="1" fill="none" fill-rule="evenodd">
        <g id="Tab-Bar" transform="translate(-108.000000, -14.000000)">
            <g id="Tab-Bar-Icons/Timeline/Not-Active" transform="translate(105.000000, 12.000000)">
                <g>
                    <rect id="Rectangle-2" x="0" y="0" width="30" height="26"></rect>
                    <path d="M6,4 C4.8954305,4 4,4.8954305 4,6 L4,20 C4,21.1045695 4.8954305,22 6,22 L24,22 C25.1045695,22 26,21.1045695 26,20 L26,6 C26,4.8954305 25.1045695,4 24,4 L6,4 Z M6,3 L24,3 C25.6568542,3 27,4.34314575 27,6 L27,20 C27,21.6568542 25.6568542,23 24,23 L6,23 C4.34314575,23 3,21.6568542 3,20 L3,6 C3,4.34314575 4.34314575,3 6,3 Z" id="Rectangle-6" fill="#FFFFFF" fill-rule="nonzero"></path>
                    <polygon id="Line-2" fill="#FFFFFF" fill-rule="nonzero" points="9 6 8 6 8 2 9 2"></polygon>
                    <polygon id="Line-2-Copy" fill="#FFFFFF" fill-rule="nonzero" points="22 6 21 6 21 2 22 2"></polygon>
                    <polygon id="Line" fill="#FFFFFF" fill-rule="nonzero" points="3 10 3 9 27 9 27 10"></polygon>
                    <rect id="Rectangle-10" fill="#FFFFFF" x="6" y="12" width="5" height="5"></rect>
                </g>
            </g>
        </g>
    </g>
</svg>