<?xml version="1.0" encoding="UTF-8"?>
<svg width="58px" height="58px" viewBox="0 0 58 58" version="1.1" xmlns="http://www.w3.org/2000/svg" xmlns:xlink="http://www.w3.org/1999/xlink">
    <!-- Generator: Sketch 44.1 (41455) - http://www.bohemiancoding.com/sketch -->
    <title>Tem&amp;Hum Icon 58x58</title>
    <desc>Created with Sketch.</desc>
    <defs></defs>
    <g id="Main-App-Advanced+Simple-mode" stroke="none" stroke-width="1" fill="none" fill-rule="evenodd">
        <g id="Icons-100x100-Tile" transform="translate(-406.000000, -58.000000)">
            <g id="Tem&amp;Hum-Icon-58x58" transform="translate(406.000000, 58.000000)">
                <g>
                    <path d="M46.5981962,15.4928063 L43.1352901,10.1507334 C42.2303575,8.75473371 40.7678557,8.75749012 39.8647099,10.1507334 L36.4018038,15.4928063 C35.5240884,16.600955 35,18.0019725 35,19.5253974 C35,23.1152483 37.9101491,26.0253974 41.5,26.0253974 C45.0898509,26.0253974 48,23.1152483 48,19.5253974 C48,18.0019725 47.4759116,16.600955 46.5981962,15.4928063 Z M24.2572016,36.6430041 L24.2572016,37.6430041 C26.0792181,38.968107 27.2386831,41.1213992 27.2386831,43.7716049 C27.2386831,47.9125514 23.7602881,51.3909465 19.6193416,51.3909465 C15.4783951,51.3909465 12,48.0781893 12,43.7716049 C12,41.287037 13.159465,39.1337449 14.9814815,37.6430041 L14.8621399,11.6378601 C14.8621399,9.15329218 16.8497942,7 19.5,7 C21.9845679,7 24.1378601,8.98765432 24.1378601,11.6378601 L24.2572016,36.6430041 Z" id="Shape" fill="#FFFFFF"></path>
                    <rect id="Rectangle-3" x="0" y="0" width="58" height="58"></rect>
                </g>
            </g>
        </g>
    </g>
</svg>