<?xml version="1.0" encoding="UTF-8"?>
<svg width="11px" height="26px" viewBox="0 0 11 26" version="1.1" xmlns="http://www.w3.org/2000/svg" xmlns:xlink="http://www.w3.org/1999/xlink">
    <!-- Generator: Sketch 50.2 (55047) - http://www.bohemiancoding.com/sketch -->
    <title>Tab Bar Icons/Thermometer/Not Active</title>
    <desc>Created with Sketch.</desc>
    <defs></defs>
    <g id="Symbols" stroke="none" stroke-width="1" fill="none" fill-rule="evenodd">
        <g id="Tab-Bar" transform="translate(-35.000000, -12.000000)">
            <g id="Tab-Bar-Icons/Thermometer/Active" transform="translate(25.000000, 12.000000)">
                <g>
                    <rect id="Rectangle-6" stroke="#979797" fill="#D8D8D8" opacity="0" x="0.5" y="0.5" width="29" height="25"></rect>
                    <path d="M19,9 L15,9 L15,10 L19,10 L19,12 L16,12 L16,13 L19,13 L19,16.2571282 C20.2541238,17.2921502 21,18.8345156 21,20.5 C21,23.5375661 18.5375661,26 15.5,26 C12.4624339,26 10,23.5375661 10,20.5 C10,18.8345156 10.7458762,17.2921502 12,16.2571282 L12,3.5 C12,1.56700338 13.5670034,0 15.5,0 C17.4329966,0 19,1.56700338 19,3.5 L19,6 L16,6 L16,7 L19,7 L19,9 Z" id="Combined-Shape" fill="#7F5C18" fill-rule="nonzero"></path>
                </g>
            </g>
        </g>
    </g>
</svg>