<?xml version="1.0" encoding="UTF-8"?>
<svg width="26px" height="26px" viewBox="0 0 26 26" version="1.1" xmlns="http://www.w3.org/2000/svg" xmlns:xlink="http://www.w3.org/1999/xlink">
    <!-- Generator: Sketch 50.2 (55047) - http://www.bohemiancoding.com/sketch -->
    <title>Tab Bar Icons/Settings/Not Active</title>
    <desc>Created with Sketch.</desc>
    <defs></defs>
    <g id="Symbols" stroke="none" stroke-width="1" fill="none" fill-rule="evenodd">
        <g id="Tab-Bar" transform="translate(-268.000000, -12.000000)" fill="#FFFFFF">
            <g id="Tab-Bar-Icons/Settings/Not-Active" transform="translate(268.000000, 12.000000)">
                <g id="Group">
                    <g>
                        <path d="M12.9566667,23.12 C7.39147734,23.12 2.88,18.6085227 2.88,13.0433333 C2.88,7.478144 7.39147734,2.96666667 12.9566667,2.96666667 C18.521856,2.96666667 23.0333333,7.478144 23.0333333,13.0433333 C23.0333333,18.6085227 18.521856,23.12 12.9566667,23.12 Z M12.9566667,22.12 C17.9695712,22.12 22.0333333,18.0562379 22.0333333,13.0433333 C22.0333333,8.03042875 17.9695712,3.96666667 12.9566667,3.96666667 C7.94376209,3.96666667 3.88,8.03042875 3.88,13.0433333 C3.88,18.0562379 7.94376209,22.12 12.9566667,22.12 Z" id="Oval" fill-rule="nonzero"></path>
                        <polygon id="Rectangle-6" points="12.3933333 0.0866666667 13.52 0.0866666667 14.6466667 3.46666667 11.2666667 3.46666667"></polygon>
                        <polygon id="Rectangle-6" transform="translate(18.590000, 3.286114) rotate(-330.000000) translate(-18.590000, -3.286114) " points="18.0266667 1.59611378 19.1533333 1.59611378 20.28 4.97611378 16.9 4.97611378"></polygon>
                        <polygon id="Rectangle-6" transform="translate(22.713886, 7.410000) rotate(-300.000000) translate(-22.713886, -7.410000) " points="22.1505529 5.72 23.2772195 5.72 24.4038862 9.1 21.0238862 9.1"></polygon>
                        <polygon id="Rectangle-6" transform="translate(24.223333, 13.043333) rotate(-270.000000) translate(-24.223333, -13.043333) " points="23.66 11.3533333 24.7866667 11.3533333 25.9133333 14.7333333 22.5333333 14.7333333"></polygon>
                        <polygon id="Rectangle-6" transform="translate(22.713886, 18.676667) rotate(-240.000000) translate(-22.713886, -18.676667) " points="22.1505529 16.9866667 23.2772195 16.9866667 24.4038862 20.3666667 21.0238862 20.3666667"></polygon>
                        <polygon id="Rectangle-6" transform="translate(18.590000, 22.800553) rotate(-210.000000) translate(-18.590000, -22.800553) " points="18.0266667 21.1105529 19.1533333 21.1105529 20.28 24.4905529 16.9 24.4905529"></polygon>
                        <polygon id="Rectangle-6" transform="translate(12.956667, 24.310000) rotate(-180.000000) translate(-12.956667, -24.310000) " points="12.3933333 22.62 13.52 22.62 14.6466667 26 11.2666667 26"></polygon>
                        <polygon id="Rectangle-6" transform="translate(7.323333, 22.800553) rotate(-150.000000) translate(-7.323333, -22.800553) " points="6.76 21.1105529 7.88666667 21.1105529 9.01333333 24.4905529 5.63333333 24.4905529"></polygon>
                        <polygon id="Rectangle-6" transform="translate(3.199447, 18.676667) rotate(-120.000000) translate(-3.199447, -18.676667) " points="2.63611378 16.9866667 3.76278045 16.9866667 4.88944712 20.3666667 1.50944712 20.3666667"></polygon>
                        <polygon id="Rectangle-6" transform="translate(1.690000, 13.043333) rotate(-90.000000) translate(-1.690000, -13.043333) " points="1.12666667 11.3533333 2.25333333 11.3533333 3.38 14.7333333 1.13686838e-13 14.7333333"></polygon>
                        <polygon id="Rectangle-6" transform="translate(3.199447, 7.410000) rotate(-60.000000) translate(-3.199447, -7.410000) " points="2.63611378 5.72 3.76278045 5.72 4.88944712 9.1 1.50944712 9.1"></polygon>
                        <polygon id="Rectangle-6" transform="translate(7.323333, 3.286114) rotate(-30.000000) translate(-7.323333, -3.286114) " points="6.76 1.59611378 7.88666667 1.59611378 9.01333333 4.97611378 5.63333333 4.97611378"></polygon>
                        <path d="M15.1466667,4.57044551 L15.1466667,13.6471122 C15.1466667,13.6820902 15.175022,13.7104455 15.21,13.7104455 C15.244978,13.7104455 15.2733333,13.6820902 15.2733333,13.6471122 L15.2733333,4.57044551 L15.1466667,4.57044551 Z" id="Rectangle-10" stroke="#FFFFFF" transform="translate(15.210000, 9.140446) rotate(-330.000000) translate(-15.210000, -9.140446) "></path>
                        <path d="M8.1372603,17.7387767 L8.26392697,17.7387767 L8.26392697,8.66211001 C8.26392697,8.62713198 8.23557167,8.59877668 8.20059364,8.59877668 C8.1656156,8.59877668 8.1372603,8.62713198 8.1372603,8.66211001 L8.1372603,17.7387767 Z" id="Rectangle-10-Copy" stroke="#FFFFFF" transform="translate(8.200594, 13.168777) rotate(-630.000000) translate(-8.200594, -13.168777) "></path>
                        <path d="M15.2320751,21.8349699 L15.3587418,21.8349699 L15.3587418,12.7583033 C15.3587418,12.7233252 15.3303865,12.6949699 15.2954085,12.6949699 C15.2604304,12.6949699 15.2320751,12.7233252 15.2320751,12.7583033 L15.2320751,21.8349699 Z" id="Rectangle-10-Copy-2" stroke="#FFFFFF" transform="translate(15.295408, 17.264970) scale(-1, 1) rotate(-150.000000) translate(-15.295408, -17.264970) "></path>
                    </g>
                </g>
            </g>
        </g>
    </g>
</svg>