<?xml version="1.0" encoding="UTF-8"?>
<svg width="24px" height="24px" viewBox="0 0 24 24" version="1.1" xmlns="http://www.w3.org/2000/svg" xmlns:xlink="http://www.w3.org/1999/xlink">
    <!-- Generator: Sketch 49.3 (51167) - http://www.bohemiancoding.com/sketch -->
    <title>Shape</title>
    <desc>Created with Sketch.</desc>
    <defs></defs>
    <g id="Symbols" stroke="none" stroke-width="1" fill="none" fill-rule="evenodd">
        <g id="Tab-Bar/Sensor-Icon/-Active" transform="translate(-33.000000, -11.000000)" fill="#FFFFFF">
            <g id="Shape">
                <path d="M43.6666667,29.6666667 C43.6666667,30.4 44.2666667,31 45,31 C45.7333333,31 46.3333333,30.4 46.3333333,29.6666667 C46.3333333,28.9333333 45.7333333,28.3333333 45,28.3333333 C44.2666667,28.3333333 43.6666667,28.9333333 43.6666667,29.6666667 L43.6666667,29.6666667 Z M43.6666667,11 L43.6666667,16.3333333 L46.3333333,16.3333333 L46.3333333,13.7733333 C50.8533333,14.4266667 54.3333333,18.2933333 54.3333333,23 C54.3333333,28.16 50.16,32.3333333 45,32.3333333 C39.84,32.3333333 35.6666667,28.16 35.6666667,23 C35.6666667,20.76 36.4533333,18.7066667 37.7733333,17.1066667 L45,24.3333333 L46.88,22.4533333 L37.8133333,13.3866667 L37.8133333,13.4133333 C34.8933333,15.6 33,19.0666667 33,23 C33,29.6266667 38.36,35 45,35 C51.6266667,35 57,29.6266667 57,23 C57,16.3733333 51.6266667,11 45,11 L43.6666667,11 L43.6666667,11 Z M53,23 C53,22.2666667 52.4,21.6666667 51.6666667,21.6666667 C50.9333333,21.6666667 50.3333333,22.2666667 50.3333333,23 C50.3333333,23.7333333 50.9333333,24.3333333 51.6666667,24.3333333 C52.4,24.3333333 53,23.7333333 53,23 L53,23 Z M37,23 C37,23.7333333 37.6,24.3333333 38.3333333,24.3333333 C39.0666667,24.3333333 39.6666667,23.7333333 39.6666667,23 C39.6666667,22.2666667 39.0666667,21.6666667 38.3333333,21.6666667 C37.6,21.6666667 37,22.2666667 37,23 L37,23 Z"></path>
            </g>
        </g>
    </g>
</svg>