<?xml version="1.0" encoding="UTF-8"?>
<svg width="24px" height="27px" viewBox="0 0 24 27" version="1.1" xmlns="http://www.w3.org/2000/svg" xmlns:xlink="http://www.w3.org/1999/xlink">
    <!-- Generator: Sketch 49.3 (51167) - http://www.bohemiancoding.com/sketch -->
    <title>Shape</title>
    <desc>Created with Sketch.</desc>
    <defs></defs>
    <g id="Symbols" stroke="none" stroke-width="1" fill="none" fill-rule="evenodd">
        <g id="Tab-Bar/Timeline-Icon/Not-Active" transform="translate(-33.000000, -10.000000)" fill="#7F5C18">
            <g id="Icon-24px">
                <g>
                    <path d="M54.3333333,12.6666667 L53,12.6666667 L53,10 L50.3333333,10 L50.3333333,12.6666667 L39.6666667,12.6666667 L39.6666667,10 L37,10 L37,12.6666667 L35.6666667,12.6666667 C34.1866667,12.6666667 33.0133333,13.8666667 33.0133333,15.3333333 L33,34 C33,35.4666667 34.1866667,36.6666667 35.6666667,36.6666667 L54.3333333,36.6666667 C55.8,36.6666667 57,35.4666667 57,34 L57,15.3333333 C57,13.8666667 55.8,12.6666667 54.3333333,12.6666667 L54.3333333,12.6666667 Z M54.3333333,34 L35.6666667,34 L35.6666667,19.3333333 L54.3333333,19.3333333 L54.3333333,34 L54.3333333,34 Z M38.3333333,22 L45,22 L45,28.6666667 L38.3333333,28.6666667 L38.3333333,22 Z" id="Shape"></path>
                </g>
            </g>
        </g>
    </g>
</svg>