<?xml version="1.0" encoding="UTF-8"?>
<svg width="32px" height="32px" viewBox="0 0 32 32" version="1.1" xmlns="http://www.w3.org/2000/svg" xmlns:xlink="http://www.w3.org/1999/xlink">
    <!-- Generator: Sketch 49.3 (51167) - http://www.bohemiancoding.com/sketch -->
    <title>Temp/Hum</title>
    <desc>Created with Sketch.</desc>
    <defs></defs>
    <g id="Symbols" stroke="none" stroke-width="1" fill="none" fill-rule="evenodd">
        <g id="T&amp;H-Tile-Icon-">
            <g id="Temp/Hum">
                <rect id="Rectangle-121" fill="#FFB931" x="0" y="0" width="32" height="32" rx="2"></rect>
                <g id="Group" transform="translate(9.440000, 8.160000)" fill="#FFFFFF">
                    <g id="T&amp;H-Icon" transform="translate(0.000000, 0.000000)">
                        <path d="M4.5526749,11.6481481 L4.5526749,1.95185185 C4.5526749,0.944444444 3.75288066,0.188888889 2.83004115,0.188888889 C1.84567901,0.188888889 1.10740741,1.00740741 1.10740741,1.95185185 L1.10740741,11.6481481 C0.430658436,12.2148148 0,13.0333333 0,13.9777778 C0,15.6148148 1.29197531,16.8740741 2.83004115,16.8740741 C4.368107,16.8740741 5.6600823,15.5518519 5.6600823,13.9777778 C5.6600823,12.9703704 5.22942387,12.1518519 4.5526749,11.6481481 L4.5526749,11.6481481 Z" id="Shape"></path>
                        <path d="M12.6121399,3.9037037 L12.6121399,3.9037037 L12.5506173,3.77777778 C12.5506173,3.77777778 12.5506173,3.71481481 12.4890947,3.71481481 L11.258642,1.25925926 C10.9510288,0.62962963 10.0897119,0.62962963 9.72057613,1.25925926 L8.36707819,3.65185185 C8.36707819,3.71481481 8.30555556,3.71481481 8.30555556,3.77777778 L8.24403292,3.9037037 L8.24403292,3.9037037 C8.05946502,4.40740741 7.99794239,4.91111111 8.12098765,5.54074074 C8.36707819,6.42222222 9.04382716,7.11481481 9.90514403,7.3037037 C11.4432099,7.61851852 12.7967078,6.42222222 12.7967078,4.91111111 C12.7967078,4.53333333 12.7351852,4.21851852 12.6121399,3.9037037 L12.6121399,3.9037037 Z" id="Shape"></path>
                    </g>
                </g>
            </g>
        </g>
    </g>
</svg>