<?xml version="1.0" encoding="UTF-8"?>
<svg width="26px" height="27px" viewBox="0 0 26 27" version="1.1" xmlns="http://www.w3.org/2000/svg" xmlns:xlink="http://www.w3.org/1999/xlink">
    <!-- Generator: Sketch 49.3 (51167) - http://www.bohemiancoding.com/sketch -->
    <title>Shape</title>
    <desc>Created with Sketch.</desc>
    <defs></defs>
    <g id="Symbols" stroke="none" stroke-width="1" fill="none" fill-rule="evenodd">
        <g id="Tab-Bar/Settings-Icon/Active" transform="translate(-32.000000, -10.000000)" fill="#FFFFFF">
            <g id="Shape">
                <path d="M54.8791088,24.64 C54.9324421,24.2133333 54.9724421,23.7866667 54.9724421,23.3333333 C54.9724421,22.88 54.9324421,22.4533333 54.8791088,22.0266667 L57.6924421,19.8266667 C57.9457755,19.6266667 58.0124421,19.2666667 57.8524421,18.9733333 L55.1857755,14.36 C55.0257755,14.0666667 54.6657755,13.96 54.3724421,14.0666667 L51.0524421,15.4 C50.3591088,14.8666667 49.6124421,14.4266667 48.7991088,14.0933333 L48.2924421,10.56 C48.2524421,10.24 47.9724421,10 47.6391088,10 L42.3057755,10 C41.9724421,10 41.6924421,10.24 41.6524421,10.56 L41.1457755,14.0933333 C40.3324421,14.4266667 39.5857755,14.88 38.8924421,15.4 L35.5724421,14.0666667 C35.2657755,13.9466667 34.9191088,14.0666667 34.7591088,14.36 L32.0924421,18.9733333 C31.9191088,19.2666667 31.9991088,19.6266667 32.2524421,19.8266667 L35.0657755,22.0266667 C35.0124421,22.4533333 34.9724421,22.8933333 34.9724421,23.3333333 C34.9724421,23.7733333 35.0124421,24.2133333 35.0657755,24.64 L32.2524421,26.84 C31.9991088,27.04 31.9324421,27.4 32.0924421,27.6933333 L34.7591088,32.3066667 C34.9191088,32.6 35.2791088,32.7066667 35.5724421,32.6 L38.8924421,31.2666667 C39.5857755,31.8 40.3324421,32.24 41.1457755,32.5733333 L41.6524421,36.1066667 C41.6924421,36.4266667 41.9724421,36.6666667 42.3057755,36.6666667 L47.6391088,36.6666667 C47.9724421,36.6666667 48.2524421,36.4266667 48.2924421,36.1066667 L48.7991088,32.5733333 C49.6124421,32.24 50.3591088,31.7866667 51.0524421,31.2666667 L54.3724421,32.6 C54.6791088,32.72 55.0257755,32.6 55.1857755,32.3066667 L57.8524421,27.6933333 C58.0124421,27.4 57.9457755,27.04 57.6924421,26.84 L54.8791088,24.64 L54.8791088,24.64 Z M44.9724421,28 C42.3991088,28 40.3057755,25.9066667 40.3057755,23.3333333 C40.3057755,20.76 42.3991088,18.6666667 44.9724421,18.6666667 C47.5457755,18.6666667 49.6391088,20.76 49.6391088,23.3333333 C49.6391088,25.9066667 47.5457755,28 44.9724421,28 L44.9724421,28 Z"></path>
            </g>
        </g>
    </g>
</svg>