
<svg width="20px" height="20px" viewBox="0 0 20 20" version="1.1" xmlns="http://www.w3.org/2000/svg" xmlns:xlink="http://www.w3.org/1999/xlink">
    <!-- Generator: Sketch 42 (36781) - http://www.bohemiancoding.com/sketch -->
    <desc>Created with Sketch.</desc>
    <defs></defs>
    <path d="M19,20 L20,20 L20,12 L18,12 L18,18 L12,18 L12,20 L19,20 Z M0,19 L0,12 L2,12 L2,18 L8,18 L8,20 L0,20 L0,19 Z M20,1 L20,8 L18,8 L18,2 L12,2 L12,0 L20,0 L20,1 Z M1,0 L0,0 L0,8 L2,8 L2,2 L8,2 L8,0 L1,0 Z M8,8 L12,8 L12,12 L8,12 L8,8 Z" id="Combined-Shape" stroke="none" fill="#FFFFFF" fill-rule="evenodd"></path>
</svg>