<?xml version="1.0" encoding="UTF-8"?>
<svg width="11px" height="26px" viewBox="0 0 11 26" version="1.1" xmlns="http://www.w3.org/2000/svg" xmlns:xlink="http://www.w3.org/1999/xlink">
    <!-- Generator: Sketch 50.2 (55047) - http://www.bohemiancoding.com/sketch -->
    <title>Tab Bar Icons/Thermometer/Not Active</title>
    <desc>Created with Sketch.</desc>
    <defs></defs>
    <g id="Symbols" stroke="none" stroke-width="1" fill="none" fill-rule="evenodd">
        <g id="Tab-Bar-Icons/Thermometer/Not-Active" transform="translate(-10.000000, 0.000000)">
            <g>
                <rect id="Rectangle-6" stroke="#979797" fill="#D8D8D8" opacity="0" x="0.5" y="0.5" width="29" height="25"></rect>
                <path d="M13,3.5 L13,16.7284102 L12.6365183,17.0283898 C11.6004483,17.8834532 11,19.1485268 11,20.5 C11,22.9852814 13.0147186,25 15.5,25 C17.9852814,25 20,22.9852814 20,20.5 C20,19.1485268 19.3995517,17.8834532 18.3634817,17.0283898 L18,16.7284102 L18,3.5 C18,2.11928813 16.8807119,1 15.5,1 C14.1192881,1 13,2.11928813 13,3.5 Z M12,3.5 C12,1.56700338 13.5670034,0 15.5,0 C17.4329966,0 19,1.56700338 19,3.5 L19,16.2571282 C20.2541238,17.2921502 21,18.8345156 21,20.5 C21,23.5375661 18.5375661,26 15.5,26 C12.4624339,26 10,23.5375661 10,20.5 C10,18.8345156 10.7458762,17.2921502 12,16.2571282 L12,3.5 Z" id="Combined-Shape" fill="#FFFFFF" fill-rule="nonzero"></path>
                <polygon id="Line-3" fill="#FFFFFF" fill-rule="nonzero" points="16 7 16 6 19 6 19 7"></polygon>
                <polygon id="Line-3-Copy" fill="#FFFFFF" fill-rule="nonzero" points="15 10 15 9 19 9 19 10"></polygon>
                <polygon id="Line-3-Copy-2" fill="#FFFFFF" fill-rule="nonzero" points="16 13 16 12 19 12 19 13"></polygon>
            </g>
        </g>
    </g>
</svg>