
<svg width="73px" height="712px" viewBox="0 0 73 712" version="1.1" xmlns="http://www.w3.org/2000/svg" xmlns:xlink="http://www.w3.org/1999/xlink">
    <!-- Generator: Sketch 43.1 (39012) - http://www.bohemiancoding.com/sketch -->
    <desc>Created with Sketch.</desc>
    <defs></defs>
    <g id="Temperature" stroke="none" stroke-width="1" fill="none" fill-rule="evenodd" fill-opacity="0.5">
        <g id="Group-2-Copy" transform="translate(-6.000000, 0.000000)" fill="#000000">
            <path d="M65,702 L65,690 L70.0066023,690 C70.5550537,690 71,689.552285 71,689 C71,688.443865 70.5552407,688 70.0066023,688 L65,688 L65,676 L70.0066023,676 C70.5550537,676 71,675.552285 71,675 C71,674.443865 70.5552407,674 70.0066023,674 L65,674 L65,662 L70.0066023,662 C70.5550537,662 71,661.552285 71,661 C71,660.443865 70.5552407,660 70.0066023,660 L65,660 L65,648 L70.0066023,648 C70.5550537,648 71,647.552285 71,647 C71,646.443865 70.5552407,646 70.0066023,646 L65,646 L65,634 L78.0008579,634 C78.5450757,634 79,633.552285 79,633 C79,632.443865 78.5526688,632 78.0008579,632 L65,632 L65,620 L70.0066023,620 C70.5550537,620 71,619.552285 71,619 C71,618.443865 70.5552407,618 70.0066023,618 L65,618 L65,606 L70.0066023,606 C70.5550537,606 71,605.552285 71,605 C71,604.443865 70.5552407,604 70.0066023,604 L65,604 L65,592 L70.0066023,592 C70.5550537,592 71,591.552285 71,591 C71,590.443865 70.5552407,590 70.0066023,590 L65,590 L65,578 L70.0066023,578 C70.5550537,578 71,577.552285 71,577 C71,576.443865 70.5552407,576 70.0066023,576 L65,576 L65,566 L78.0008579,566 C78.5450757,566 79,565.552285 79,565 C79,564.443865 78.5526688,564 78.0008579,564 L65,564 L65,552 L70.0066023,552 C70.5550537,552 71,551.552285 71,551 C71,550.443865 70.5552407,550 70.0066023,550 L65,550 L65,538 L70.0066023,538 C70.5550537,538 71,537.552285 71,537 C71,536.443865 70.5552407,536 70.0066023,536 L65,536 L65,524 L70.0066023,524 C70.5550537,524 71,523.552285 71,523 C71,522.443865 70.5552407,522 70.0066023,522 L65,522 L65,510 L70.0066023,510 C70.5550537,510 71,509.552285 71,509 C71,508.443865 70.5552407,508 70.0066023,508 L65,508 L65,496 L78.0008579,496 C78.5450757,496 79,495.552285 79,495 C79,494.443865 78.5526688,494 78.0008579,494 L65,494 L65,482 L70.0066023,482 C70.5550537,482 71,481.552285 71,481 C71,480.443865 70.5552407,480 70.0066023,480 L65,480 L65,468 L70.0066023,468 C70.5550537,468 71,467.552285 71,467 C71,466.443865 70.5552407,466 70.0066023,466 L65,466 L65,454 L70.0066023,454 C70.5550537,454 71,453.552285 71,453 C71,452.443865 70.5552407,452 70.0066023,452 L65,452 L65,440 L70.0066023,440 C70.5550537,440 71,439.552285 71,439 C71,438.443865 70.5552407,438 70.0066023,438 L65,438 L65,428 L78.0008579,428 C78.5450757,428 79,427.552285 79,427 C79,426.443865 78.5526688,426 78.0008579,426 L65,426 L65,414 L70.0066023,414 C70.5550537,414 71,413.552285 71,413 C71,412.443865 70.5552407,412 70.0066023,412 L65,412 L65,400 L70.0066023,400 C70.5550537,400 71,399.552285 71,399 C71,398.443865 70.5552407,398 70.0066023,398 L65,398 L65,386 L70.0066023,386 C70.5550537,386 71,385.552285 71,385 C71,384.443865 70.5552407,384 70.0066023,384 L65,384 L65,372 L70.0066023,372 C70.5550537,372 71,371.552285 71,371 C71,370.443865 70.5552407,370 70.0066023,370 L65,370 L65,358 L78.0008579,358 C78.5450757,358 79,357.552285 79,357 C79,356.443865 78.5526688,356 78.0008579,356 L65,356 L65,344 L70.0066023,344 C70.5550537,344 71,343.552285 71,343 C71,342.443865 70.5552407,342 70.0066023,342 L65,342 L65,330 L70.0066023,330 C70.5550537,330 71,329.552285 71,329 C71,328.443865 70.5552407,328 70.0066023,328 L65,328 L65,316 L70.0066023,316 C70.5550537,316 71,315.552285 71,315 C71,314.443865 70.5552407,314 70.0066023,314 L65,314 L65,302 L70.0066023,302 C70.5550537,302 71,301.552285 71,301 C71,300.443865 70.5552407,300 70.0066023,300 L65,300 L65,288 L78.0008579,288 C78.5450757,288 79,287.552285 79,287 C79,286.443865 78.5526688,286 78.0008579,286 L65,286 L65,274 L70.0066023,274 C70.5550537,274 71,273.552285 71,273 C71,272.443865 70.5552407,272 70.0066023,272 L65,272 L65,260 L70.0066023,260 C70.5550537,260 71,259.552285 71,259 C71,258.443865 70.5552407,258 70.0066023,258 L65,258 L65,246 L70.0066023,246 C70.5550537,246 71,245.552285 71,245 C71,244.443865 70.5552407,244 70.0066023,244 L65,244 L65,232 L70.0066023,232 C70.5550537,232 71,231.552285 71,231 C71,230.443865 70.5552407,230 70.0066023,230 L65,230 L65,220 L78.0008579,220 C78.5450757,220 79,219.552285 79,219 C79,218.443865 78.5526688,218 78.0008579,218 L65,218 L65,206 L70.0066023,206 C70.5550537,206 71,205.552285 71,205 C71,204.443865 70.5552407,204 70.0066023,204 L65,204 L65,192 L70.0066023,192 C70.5550537,192 71,191.552285 71,191 C71,190.443865 70.5552407,190 70.0066023,190 L65,190 L65,178 L70.0066023,178 C70.5550537,178 71,177.552285 71,177 C71,176.443865 70.5552407,176 70.0066023,176 L65,176 L65,164 L70.0066023,164 C70.5550537,164 71,163.552285 71,163 C71,162.443865 70.5552407,162 70.0066023,162 L65,162 L65,150 L78.0008579,150 C78.5450757,150 79,149.552285 79,149 C79,148.443865 78.5526688,148 78.0008579,148 L65,148 L65,136 L70.0066023,136 C70.5550537,136 71,135.552285 71,135 C71,134.443865 70.5552407,134 70.0066023,134 L65,134 L65,122 L70.0066023,122 C70.5550537,122 71,121.552285 71,121 C71,120.443865 70.5552407,120 70.0066023,120 L65,120 L65,108 L70.0066023,108 C70.5550537,108 71,107.552285 71,107 C71,106.443865 70.5552407,106 70.0066023,106 L65,106 L65,94 L70.0066023,94 C70.5550537,94 71,93.5522847 71,93 C71,92.4438648 70.5552407,92 70.0066023,92 L65,92 L65,82 L78.0008579,82 C78.5450757,82 79,81.5522847 79,81 C79,80.4438648 78.5526688,80 78.0008579,80 L65,80 L65,68 L70.0066023,68 C70.5550537,68 71,67.5522847 71,67 C71,66.4438648 70.5552407,66 70.0066023,66 L65,66 L65,54 L70.0066023,54 C70.5550537,54 71,53.5522847 71,53 C71,52.4438648 70.5552407,52 70.0066023,52 L65,52 L65,40 L70.0066023,40 C70.5550537,40 71,39.5522847 71,39 C71,38.4438648 70.5552407,38 70.0066023,38 L65,38 L65,26 L70.0066023,26 C70.5550537,26 71,25.5522847 71,25 C71,24.4438648 70.5552407,24 70.0066023,24 L65,24 L65,12 L78.0008579,12 C78.5450757,12 79,11.5522847 79,11 C79,10.4438648 78.5526688,10 78.0008579,10 L65,10 L65,3.00060609 C65,1.34086092 63.6568542,0 62,0 C60.3465171,0 59,1.34341711 59,3.00060609 L59,10 L45.9991421,10 C45.4549243,10 45,10.4477153 45,11 C45,11.5561352 45.4473312,12 45.9991421,12 L59,12 L59,24 L53.9933977,24 C53.4449463,24 53,24.4477153 53,25 C53,25.5561352 53.4447593,26 53.9933977,26 L59,26 L59,38 L53.9933977,38 C53.4449463,38 53,38.4477153 53,39 C53,39.5561352 53.4447593,40 53.9933977,40 L59,40 L59,52 L53.9933977,52 C53.4449463,52 53,52.4477153 53,53 C53,53.5561352 53.4447593,54 53.9933977,54 L59,54 L59,66 L53.9933977,66 C53.4449463,66 53,66.4477153 53,67 C53,67.5561352 53.4447593,68 53.9933977,68 L59,68 L59,80 L45.9991421,80 C45.4549243,80 45,80.4477153 45,81 C45,81.5561352 45.4473312,82 45.9991421,82 L59,82 L59,92 L53.9933977,92 C53.4449463,92 53,92.4477153 53,93 C53,93.5561352 53.4447593,94 53.9933977,94 L59,94 L59,106 L53.9933977,106 C53.4449463,106 53,106.447715 53,107 C53,107.556135 53.4447593,108 53.9933977,108 L59,108 L59,120 L53.9933977,120 C53.4449463,120 53,120.447715 53,121 C53,121.556135 53.4447593,122 53.9933977,122 L59,122 L59,134 L53.9933977,134 C53.4449463,134 53,134.447715 53,135 C53,135.556135 53.4447593,136 53.9933977,136 L59,136 L59,148 L45.9991421,148 C45.4549243,148 45,148.447715 45,149 C45,149.556135 45.4473312,150 45.9991421,150 L59,150 L59,162 L53.9933977,162 C53.4449463,162 53,162.447715 53,163 C53,163.556135 53.4447593,164 53.9933977,164 L59,164 L59,176 L53.9933977,176 C53.4449463,176 53,176.447715 53,177 C53,177.556135 53.4447593,178 53.9933977,178 L59,178 L59,190 L53.9933977,190 C53.4449463,190 53,190.447715 53,191 C53,191.556135 53.4447593,192 53.9933977,192 L59,192 L59,204 L53.9933977,204 C53.4449463,204 53,204.447715 53,205 C53,205.556135 53.4447593,206 53.9933977,206 L59,206 L59,218 L45.9991421,218 C45.4549243,218 45,218.447715 45,219 C45,219.556135 45.4473312,220 45.9991421,220 L59,220 L59,230 L53.9933977,230 C53.4449463,230 53,230.447715 53,231 C53,231.556135 53.4447593,232 53.9933977,232 L59,232 L59,244 L53.9933977,244 C53.4449463,244 53,244.447715 53,245 C53,245.556135 53.4447593,246 53.9933977,246 L59,246 L59,258 L53.9933977,258 C53.4449463,258 53,258.447715 53,259 C53,259.556135 53.4447593,260 53.9933977,260 L59,260 L59,272 L53.9933977,272 C53.4449463,272 53,272.447715 53,273 C53,273.556135 53.4447593,274 53.9933977,274 L59,274 L59,286 L45.9991421,286 C45.4549243,286 45,286.447715 45,287 C45,287.556135 45.4473312,288 45.9991421,288 L59,288 L59,300 L53.9933977,300 C53.4449463,300 53,300.447715 53,301 C53,301.556135 53.4447593,302 53.9933977,302 L59,302 L59,314 L53.9933977,314 C53.4449463,314 53,314.447715 53,315 C53,315.556135 53.4447593,316 53.9933977,316 L59,316 L59,328 L53.9933977,328 C53.4449463,328 53,328.447715 53,329 C53,329.556135 53.4447593,330 53.9933977,330 L59,330 L59,342 L53.9933977,342 C53.4449463,342 53,342.447715 53,343 C53,343.556135 53.4447593,344 53.9933977,344 L59,344 L59,356 L45.9991421,356 C45.4549243,356 45,356.447715 45,357 C45,357.556135 45.4473312,358 45.9991421,358 L59,358 L59,370 L53.9933977,370 C53.4449463,370 53,370.447715 53,371 C53,371.556135 53.4447593,372 53.9933977,372 L59,372 L59,384 L53.9933977,384 C53.4449463,384 53,384.447715 53,385 C53,385.556135 53.4447593,386 53.9933977,386 L59,386 L59,398 L53.9933977,398 C53.4449463,398 53,398.447715 53,399 C53,399.556135 53.4447593,400 53.9933977,400 L59,400 L59,412 L53.9933977,412 C53.4449463,412 53,412.447715 53,413 C53,413.556135 53.4447593,414 53.9933977,414 L59,414 L59,426 L45.9991421,426 C45.4549243,426 45,426.447715 45,427 C45,427.556135 45.4473312,428 45.9991421,428 L59,428 L59,438 L53.9933977,438 C53.4449463,438 53,438.447715 53,439 C53,439.556135 53.4447593,440 53.9933977,440 L59,440 L59,452 L53.9933977,452 C53.4449463,452 53,452.447715 53,453 C53,453.556135 53.4447593,454 53.9933977,454 L59,454 L59,466 L53.9933977,466 C53.4449463,466 53,466.447715 53,467 C53,467.556135 53.4447593,468 53.9933977,468 L59,468 L59,480 L53.9933977,480 C53.4449463,480 53,480.447715 53,481 C53,481.556135 53.4447593,482 53.9933977,482 L59,482 L59,494 L45.9991421,494 C45.4549243,494 45,494.447715 45,495 C45,495.556135 45.4473312,496 45.9991421,496 L59,496 L59,508 L53.9933977,508 C53.4449463,508 53,508.447715 53,509 C53,509.556135 53.4447593,510 53.9933977,510 L59,510 L59,522 L53.9933977,522 C53.4449463,522 53,522.447715 53,523 C53,523.556135 53.4447593,524 53.9933977,524 L59,524 L59,536 L53.9933977,536 C53.4449463,536 53,536.447715 53,537 C53,537.556135 53.4447593,538 53.9933977,538 L59,538 L59,550 L53.9933977,550 C53.4449463,550 53,550.447715 53,551 C53,551.556135 53.4447593,552 53.9933977,552 L59,552 L59,564 L45.9991421,564 C45.4549243,564 45,564.447715 45,565 C45,565.556135 45.4473312,566 45.9991421,566 L59,566 L59,576 L53.9933977,576 C53.4449463,576 53,576.447715 53,577 C53,577.556135 53.4447593,578 53.9933977,578 L59,578 L59,590 L53.9933977,590 C53.4449463,590 53,590.447715 53,591 C53,591.556135 53.4447593,592 53.9933977,592 L59,592 L59,604 L53.9933977,604 C53.4449463,604 53,604.447715 53,605 C53,605.556135 53.4447593,606 53.9933977,606 L59,606 L59,618 L53.9933977,618 C53.4449463,618 53,618.447715 53,619 C53,619.556135 53.4447593,620 53.9933977,620 L59,620 L59,632 L45.9991421,632 C45.4549243,632 45,632.447715 45,633 C45,633.556135 45.4473312,634 45.9991421,634 L59,634 L59,646 L53.9933977,646 C53.4449463,646 53,646.447715 53,647 C53,647.556135 53.4447593,648 53.9933977,648 L59,648 L59,660 L53.9933977,660 C53.4449463,660 53,660.447715 53,661 C53,661.556135 53.4447593,662 53.9933977,662 L59,662 L59,674 L53.9933977,674 C53.4449463,674 53,674.447715 53,675 C53,675.556135 53.4447593,676 53.9933977,676 L59,676 L59,688 L53.9933977,688 C53.4449463,688 53,688.447715 53,689 C53,689.556135 53.4447593,690 53.9933977,690 L59,690 L59,702 L45.9991421,702 C45.4549243,702 45,702.447715 45,703 C45,703.556135 45.4473312,704 45.9991421,704 L59,704 L59,708.999394 C59,710.659139 60.3431458,712 62,712 C63.6534829,712 65,710.656583 65,708.999394 L65,704 L78.0008579,704 C78.5450757,704 79,703.552285 79,703 C79,702.443865 78.5526688,702 78.0008579,702 L65,702 Z" id="Combined-Shape"></path>
            <text id="0" font-family="Roboto-Regular, Roboto" font-size="20" font-weight="normal">
                <tspan x="25.7695312" y="363">0</tspan>
            </text>
            <text id="-10" font-family="Roboto-Regular, Roboto" font-size="20" font-weight="normal">
                <tspan x="6.02148438" y="433">-10</tspan>
            </text>
            <text id="-20" font-family="Roboto-Regular, Roboto" font-size="20" font-weight="normal">
                <tspan x="6.02148438" y="499">-20</tspan>
            </text>
            <text id="-30" font-family="Roboto-Regular, Roboto" font-size="20" font-weight="normal">
                <tspan x="6.02148438" y="569">-30</tspan>
            </text>
            <text id="-40" font-family="Roboto-Regular, Roboto" font-size="20" font-weight="normal">
                <tspan x="6.02148438" y="637">-40</tspan>
            </text>
            <text id="-30" font-family="Roboto-Regular, Roboto" font-size="20" font-weight="normal">
                <tspan x="7.02148438" y="707">-30</tspan>
            </text>
            <text id="50" font-family="Roboto-Regular, Roboto" font-size="20" font-weight="normal">
                <tspan x="14.5390625" y="19">50</tspan>
            </text>
            <text id="40" font-family="Roboto-Regular, Roboto" font-size="20" font-weight="normal">
                <tspan x="14.5390625" y="85">40</tspan>
            </text>
            <text id="30" font-family="Roboto-Regular, Roboto" font-size="20" font-weight="normal">
                <tspan x="14.5390625" y="155">30</tspan>
            </text>
            <text id="20" font-family="Roboto-Regular, Roboto" font-size="20" font-weight="normal">
                <tspan x="14.5390625" y="223">20</tspan>
            </text>
            <text id="10" font-family="Roboto-Regular, Roboto" font-size="20" font-weight="normal">
                <tspan x="14.5390625" y="293">10</tspan>
            </text>
        </g>
    </g>
</svg>