<?xml version="1.0" encoding="UTF-8"?>
<svg width="59px" height="59px" viewBox="0 0 59 59" version="1.1" xmlns="http://www.w3.org/2000/svg" xmlns:xlink="http://www.w3.org/1999/xlink">
    <!-- Generator: Sketch 50.2 (55047) - http://www.bohemiancoding.com/sketch -->
    <title>Group 2</title>
    <desc>Created with Sketch.</desc>
    <defs></defs>
    <g id="Temperature" stroke="none" stroke-width="1" fill="none" fill-rule="evenodd">
        <g id="T&amp;H--Timeline-Emty" transform="translate(-131.000000, -206.000000)">
            <g id="Group-2" transform="translate(132.000000, 207.000000)">
                <g id="Group">
                    <path d="M11,49.9580068 L11,20 C11,18.8954305 11.8954305,18 13,18 L46.4033203,18 C47.5078898,18 48.4033203,18.8954305 48.4033203,20 L48.4033203,47.8606544 C43.2667233,52.8732685 36.2440576,55.9619141 28.5,55.9619141 C21.9032055,55.9619141 15.8298909,53.7206304 11,49.9580068 Z" id="Combined-Shape-Copy" fill="#D8D8D8"></path>
                    <path d="M9,49.0073895 L9,19 C9,17.3431458 10.3431458,16 12,16 L45,16 C46.6568542,16 48,17.3431458 48,19 L48,49.0073895 C42.9020784,53.792096 36.0432737,56.7226562 28.5,56.7226562 C20.9567263,56.7226562 14.0979216,53.792096 9,49.0073895 Z" id="Combined-Shape" stroke="#979797" stroke-width="2"></path>
                    <circle id="Oval-Copy" stroke="#979797" stroke-width="2" cx="28.5" cy="28.5" r="28.5"></circle>
                    <path d="M9.59090909,28 L47.4090909,28" id="Line-2" stroke="#979797" stroke-width="2" stroke-linecap="square"></path>
                    <path d="M9.59090909,41 L47.4090909,41" id="Line-2-Copy" stroke="#979797" stroke-width="2" stroke-linecap="square"></path>
                    <rect id="Rectangle-10-Copy-3" stroke="#979797" fill="#979797" x="24.5" y="20.5" width="18" height="2"></rect>
                    <rect id="Rectangle-10-Copy-4" stroke="#979797" fill="#979797" x="24.5" y="33.5" width="18" height="2"></rect>
                    <rect id="Rectangle-10-Copy-5" stroke="#979797" fill="#979797" x="24.5" y="46.5" width="18" height="2"></rect>
                    <rect id="Rectangle-10-Copy-6" stroke="#979797" fill="#979797" x="17.5" y="20.5" width="2" height="2"></rect>
                    <rect id="Rectangle-10-Copy-7" stroke="#979797" fill="#979797" x="17.5" y="33.5" width="2" height="2"></rect>
                    <rect id="Rectangle-10-Copy-8" stroke="#979797" fill="#979797" x="17.5" y="46.5" width="2" height="2"></rect>
                </g>
            </g>
        </g>
    </g>
</svg>