
<svg width="22px" height="23px" viewBox="289 11 22 23" version="1.1" xmlns="http://www.w3.org/2000/svg" xmlns:xlink="http://www.w3.org/1999/xlink">
    <!-- Generator: Sketch 42 (36781) - http://www.bohemiancoding.com/sketch -->
    <desc>Created with Sketch.</desc>
    <defs></defs>
    <path d="M309.181617,26.4988812 L308.454122,27.7690649 C308.253181,28.1203455 307.808763,28.2398836 307.460416,28.0374756 L305.440002,26.8611623 C304.414762,28.0279419 303.027973,28.863975 301.454178,29.1866545 L301.454178,30.8007852 C301.454178,31.2063346 301.129298,31.5341476 300.727415,31.5341476 L299.272424,31.5341476 C298.870542,31.5341476 298.545662,31.2063346 298.545662,30.8007852 L298.545662,29.1866545 C296.971867,28.863975 295.585078,28.0279419 294.559838,26.8611623 L292.539424,28.0374756 C292.191077,28.2398836 291.746659,28.1203455 291.545718,27.7690649 L290.818223,26.4988812 C290.617281,26.148334 290.736819,25.6995162 291.084433,25.4978415 L293.112913,24.3156613 C292.871637,23.5866991 292.727165,22.811535 292.727165,22.0004362 C292.727165,21.1893374 292.871637,20.4149067 293.112913,19.6852111 L291.084433,18.5037642 C290.736819,18.3013562 290.617281,17.8532718 290.818223,17.5019912 L291.545718,16.2318075 C291.746659,15.8812602 292.191077,15.7609888 292.539424,15.9633968 L294.559838,17.1397101 C295.585078,15.9729305 296.971867,15.1368974 298.545662,14.8142179 L298.545662,13.2000872 C298.545662,12.7945378 298.870542,12.4667248 299.272424,12.4667248 L300.727415,12.4667248 C301.129298,12.4667248 301.454178,12.7945378 301.454178,13.2000872 L301.454178,14.8142179 C303.027973,15.1368974 304.414762,15.9729305 305.440002,17.1397101 L307.460416,15.9633968 C307.808763,15.7609888 308.253181,15.8812602 308.454122,16.2318075 L309.181617,17.5019912 C309.382559,17.8532718 309.263021,18.3013562 308.915407,18.5037642 L306.886926,19.6852111 C307.128203,20.4149067 307.272675,21.1893374 307.272675,22.0004362 C307.272675,22.811535 307.128203,23.5866991 306.886926,24.3156613 L308.915407,25.4978415 C309.263021,25.6995162 309.382559,26.148334 309.181617,26.4988812 L309.181617,26.4988812 Z M310.272861,24.5936057 L308.56926,23.6020997 C308.664597,23.0814124 308.727666,22.5497246 308.727666,22.0004362 C308.727666,21.4518811 308.664597,20.91946 308.56926,20.3987727 L310.272861,19.4072667 C310.968822,19.0024507 311.206431,18.1048151 310.804548,17.4037206 L309.350291,14.8633532 C308.949141,14.1622587 308.058839,13.9209825 307.363612,14.3265319 L305.64241,15.3275716 C304.838645,14.6382109 303.924876,14.0742552 302.909169,13.7112408 L302.909169,12.4667248 C302.909169,11.6570927 302.257943,11 301.454178,11 L298.545662,11 C297.741897,11 297.090671,11.6570927 297.090671,12.4667248 L297.090671,13.7112408 C296.074964,14.0742552 295.161195,14.6382109 294.35743,15.3275716 L292.636228,14.3265319 C291.941,13.9209825 291.050698,14.1622587 290.649549,14.8633532 L289.195291,17.4037206 C288.793409,18.1048151 289.031752,19.0024507 289.726979,19.4072667 L291.43058,20.3987727 C291.335243,20.91946 291.272174,21.4518811 291.272174,22.0004362 C291.272174,22.5497246 291.335243,23.0814124 291.43058,23.6020997 L289.726979,24.5936057 C289.031752,24.9984217 288.793409,25.8960573 289.195291,26.5971518 L290.649549,29.1375192 C291.050698,29.8386137 291.941,30.0798899 292.636228,29.6743405 L294.35743,28.6733008 C295.161195,29.3626615 296.074964,29.9273505 297.090671,30.2896316 L297.090671,31.5341476 C297.090671,32.3437797 297.741897,33.0008724 298.545662,33.0008724 L301.454178,33.0008724 C302.257943,33.0008724 302.909169,32.3437797 302.909169,31.5341476 L302.909169,30.2896316 C303.924876,29.9273505 304.838645,29.3626615 305.64241,28.6733008 L307.363612,29.6743405 C308.058839,30.0798899 308.949141,29.8386137 309.350291,29.1375192 L310.804548,26.5971518 C311.206431,25.8960573 310.968822,24.9984217 310.272861,24.5936057 L310.272861,24.5936057 Z M299.99992,24.2005234 C298.795005,24.2005234 297.818167,23.2156177 297.818167,22.0004362 C297.818167,20.785988 298.795005,19.800349 299.99992,19.800349 C301.204834,19.800349 302.181673,20.785988 302.181673,22.0004362 C302.181673,23.2156177 301.204834,24.2005234 299.99992,24.2005234 L299.99992,24.2005234 Z M299.99992,18.3336241 C297.99124,18.3336241 296.363909,19.9748892 296.363909,22.0004362 C296.363909,24.0259832 297.99124,25.6672483 299.99992,25.6672483 C302.0086,25.6672483 303.636664,24.0259832 303.636664,22.0004362 C303.636664,19.9748892 302.0086,18.3336241 299.99992,18.3336241 L299.99992,18.3336241 Z" id="Fill-172" stroke="none" fill="#FFFFFF" fill-rule="evenodd"></path>
</svg>