<?xml version="1.0" encoding="UTF-8"?>
<svg width="19px" height="27px" viewBox="0 0 19 27" version="1.1" xmlns="http://www.w3.org/2000/svg" xmlns:xlink="http://www.w3.org/1999/xlink">
    <!-- Generator: Sketch 49.3 (51167) - http://www.bohemiancoding.com/sketch -->
    <title>Shape</title>
    <desc>Created with Sketch.</desc>
    <defs></defs>
    <g id="Symbols" stroke="none" stroke-width="1" fill="none" fill-rule="evenodd">
        <g id="Tab-Bar/Map-Icon/Not-Active" transform="translate(-36.000000, -10.000000)" fill="#7F5C18">
            <g id="Shape">
                <path d="M45.3333333,10 C40.1733333,10 36,14.1733333 36,19.3333333 C36,26.3333333 45.3333333,36.6666667 45.3333333,36.6666667 C45.3333333,36.6666667 54.6666667,26.3333333 54.6666667,19.3333333 C54.6666667,14.1733333 50.4933333,10 45.3333333,10 L45.3333333,10 Z M45.3333333,22.6666667 C43.4933333,22.6666667 42,21.1733333 42,19.3333333 C42,17.4933333 43.4933333,16 45.3333333,16 C47.1733333,16 48.6666667,17.4933333 48.6666667,19.3333333 C48.6666667,21.1733333 47.1733333,22.6666667 45.3333333,22.6666667 L45.3333333,22.6666667 Z"></path>
            </g>
        </g>
    </g>
</svg>