<?xml version="1.0" encoding="UTF-8"?>
<svg width="273px" height="142px" viewBox="0 0 273 142" version="1.1" xmlns="http://www.w3.org/2000/svg" xmlns:xlink="http://www.w3.org/1999/xlink">
    <!-- Generator: Sketch 46.2 (44496) - http://www.bohemiancoding.com/sketch -->
    <title>Group</title>
    <desc>Created with Sketch.</desc>
    <defs></defs>
    <g id="Temperature" stroke="none" stroke-width="1" fill="none" fill-rule="evenodd">
        <g id="Temperature---Ready-Copy-4" transform="translate(-39.000000, -178.000000)">
            <g id="Group" transform="translate(39.000000, 156.000000)">
                <rect id="Rectangle-8-Copy" fill="#FFFFFF" x="0" y="162" width="273" height="2"></rect>
                <g id="illustration-copy" transform="translate(62.000000, 129.000000)" stroke-width="2" stroke="#FFFFFF">
                    <g id="Group-6">
                        <g id="Group-2">
                            <path d="M1.54853288,32 L149,32 L149,4.01452282 L27.6552899,5.76417672 C19.7657742,5.87793464 10.6358214,11.8677722 7.38801146,19.0630593 L1.54853288,32 Z" id="Rectangle"></path>
                            <rect id="Rectangle-5" x="67" y="1" width="77" height="3"></rect>
                        </g>
                    </g>
                </g>
                <path d="M267.51281,91.0859492 L261.976405,23.6238216 L233.046351,40.0144165 C231.890028,40.6695424 230.779075,41.3881032 229.717026,42.1666615 L229.531626,42.2741062 C229.295526,42.3789427 229.060348,42.4865775 228.826125,42.5970043 L125.835307,91.1529191 C122.738392,92.6129867 120.216426,95.0635654 118.668058,98.1172909 C114.822188,105.702201 117.853279,114.96868 125.43819,118.81455 C144.254666,128.355298 166.197174,129.618036 185.983901,122.298808 L258.226944,95.5756764 C259.458387,95.1201583 260.655341,94.5763398 261.808474,93.9484608 C262.504079,93.569705 263.179853,93.1633498 263.834773,92.730404 L263.981232,92.650289 L267.51281,91.0859492 Z M322,66.9504292 L343.14934,57.5821665 C346.078959,56.2844692 348.740651,54.4514025 350.997709,52.1771158 C361.015525,42.0828274 360.953533,25.7787448 350.859244,15.7609282 C342.971697,7.93313517 332.846903,2.99434021 322,1.51875631 L322,66.9504292 Z" id="Combined-Shape" stroke="#FFFFFF" stroke-width="2"></path>
                <path d="M121.053778,95.5722817 C127.230617,98.379936 135.232432,100.204911 145.059222,101.047208 C149.246051,101.406079 173.638613,87.4801194 177.908776,84.6224301 C182.502831,81.5479855 185.02972,74.6692326 185.489443,63.9861713" id="Path-2" stroke="#FFFFFF" stroke-width="2"></path>
            </g>
        </g>
    </g>
</svg>