
<svg width="79px" height="737px" viewBox="0 254 79 737" version="1.1" xmlns="http://www.w3.org/2000/svg" xmlns:xlink="http://www.w3.org/1999/xlink">
    <!-- Generator: Sketch 43.1 (39012) - http://www.bohemiancoding.com/sketch -->
    <desc>Created with Sketch.</desc>
    <defs></defs>
    <g id="Temperature" stroke="none" stroke-width="1" fill="none" fill-rule="evenodd" fill-opacity="0.5">
        <g id="Group-2-Copy" transform="translate(0.000000, -4.000000)" fill="#000000">
            <path d="M65,36 L65,32 L70.0066023,32 C70.5550537,32 71,31.5522847 71,31 C71,30.4438648 70.5552407,30 70.0066023,30 L65,30 L65,26 L70.0066023,26 C70.5550537,26 71,25.5522847 71,25 C71,24.4438648 70.5552407,24 70.0066023,24 L65,24 L65,20 L70.0066023,20 C70.5550537,20 71,19.5522847 71,19 C71,18.4438648 70.5552407,18 70.0066023,18 L65,18 L65,14 L78.0008579,14 C78.5450757,14 79,13.5522847 79,13 C79,12.4438648 78.5526688,12 78.0008579,12 L65,12 L65,8.00407069 C65,6.34650829 63.6568542,5 62,5 C60.3465171,5 59,6.34496826 59,8.00407069 L59,12 L45.9991421,12 C45.4549243,12 45,12.4477153 45,13 C45,13.5561352 45.4473312,14 45.9991421,14 L59,14 L59,18 L53.9933977,18 C53.4449463,18 53,18.4477153 53,19 C53,19.5561352 53.4447593,20 53.9933977,20 L59,20 L59,24 L53.9933977,24 C53.4449463,24 53,24.4477153 53,25 C53,25.5561352 53.4447593,26 53.9933977,26 L59,26 L59,30 L53.9933977,30 C53.4449463,30 53,30.4477153 53,31 C53,31.5561352 53.4447593,32 53.9933977,32 L59,32 L59,36 L53.9933977,36 C53.4449463,36 53,36.4477153 53,37 C53,37.5561352 53.4447593,38 53.9933977,38 L59,38 L59,42 L45.9991421,42 C45.4549243,42 45,42.4477153 45,43 C45,43.5561352 45.4473312,44 45.9991421,44 L59,44 L59,48 L53.9933977,48 C53.4449463,48 53,48.4477153 53,49 C53,49.5561352 53.4447593,50 53.9933977,50 L59,50 L59,54 L53.9933977,54 C53.4449463,54 53,54.4477153 53,55 C53,55.5561352 53.4447593,56 53.9933977,56 L59,56 L59,60 L53.9933977,60 C53.4449463,60 53,60.4477153 53,61 C53,61.5561352 53.4447593,62 53.9933977,62 L59,62 L59,66 L53.9933977,66 C53.4449463,66 53,66.4477153 53,67 C53,67.5561352 53.4447593,68 53.9933977,68 L59,68 L59,72 L45.9991421,72 C45.4549243,72 45,72.4477153 45,73 C45,73.5561352 45.4473312,74 45.9991421,74 L59,74 L59,78 L53.9933977,78 C53.4449463,78 53,78.4477153 53,79 C53,79.5561352 53.4447593,80 53.9933977,80 L59,80 L59,84 L53.9933977,84 C53.4449463,84 53,84.4477153 53,85 C53,85.5561352 53.4447593,86 53.9933977,86 L59,86 L59,90 L53.9933977,90 C53.4449463,90 53,90.4477153 53,91 C53,91.5561352 53.4447593,92 53.9933977,92 L59,92 L59,96 L53.9933977,96 C53.4449463,96 53,96.4477153 53,97 C53,97.5561352 53.4447593,98 53.9933977,98 L59,98 L59,102 L45.9991421,102 C45.4549243,102 45,102.447715 45,103 C45,103.556135 45.4473312,104 45.9991421,104 L59,104 L59,108 L53.9933977,108 C53.4449463,108 53,108.447715 53,109 C53,109.556135 53.4447593,110 53.9933977,110 L59,110 L59,114 L53.9933977,114 C53.4449463,114 53,114.447715 53,115 C53,115.556135 53.4447593,116 53.9933977,116 L59,116 L59,120 L53.9933977,120 C53.4449463,120 53,120.447715 53,121 C53,121.556135 53.4447593,122 53.9933977,122 L59,122 L59,126 L53.9933977,126 C53.4449463,126 53,126.447715 53,127 C53,127.556135 53.4447593,128 53.9933977,128 L59,128 L59,132 L45.9991421,132 C45.4549243,132 45,132.447715 45,133 C45,133.556135 45.4473312,134 45.9991421,134 L59,134 L59,138 L53.9933977,138 C53.4449463,138 53,138.447715 53,139 C53,139.556135 53.4447593,140 53.9933977,140 L59,140 L59,144 L53.9933977,144 C53.4449463,144 53,144.447715 53,145 C53,145.556135 53.4447593,146 53.9933977,146 L59,146 L59,150 L53.9933977,150 C53.4449463,150 53,150.447715 53,151 C53,151.556135 53.4447593,152 53.9933977,152 L59,152 L59,156 L53.9933977,156 C53.4449463,156 53,156.447715 53,157 C53,157.556135 53.4447593,158 53.9933977,158 L59,158 L59,162 L45.9991421,162 C45.4549243,162 45,162.447715 45,163 C45,163.556135 45.4473312,164 45.9991421,164 L59,164 L59,168 L53.9933977,168 C53.4449463,168 53,168.447715 53,169 C53,169.556135 53.4447593,170 53.9933977,170 L59,170 L59,174 L53.9933977,174 C53.4449463,174 53,174.447715 53,175 C53,175.556135 53.4447593,176 53.9933977,176 L59,176 L59,180 L53.9933977,180 C53.4449463,180 53,180.447715 53,181 C53,181.556135 53.4447593,182 53.9933977,182 L59,182 L59,186 L53.9933977,186 C53.4449463,186 53,186.447715 53,187 C53,187.556135 53.4447593,188 53.9933977,188 L59,188 L59,192 L45.9991421,192 C45.4549243,192 45,192.447715 45,193 C45,193.556135 45.4473312,194 45.9991421,194 L59,194 L59,198 L53.9933977,198 C53.4449463,198 53,198.447715 53,199 C53,199.556135 53.4447593,200 53.9933977,200 L59,200 L59,204 L53.9933977,204 C53.4449463,204 53,204.447715 53,205 C53,205.556135 53.4447593,206 53.9933977,206 L59,206 L59,210 L53.9933977,210 C53.4449463,210 53,210.447715 53,211 C53,211.556135 53.4447593,212 53.9933977,212 L59,212 L59,216 L53.9933977,216 C53.4449463,216 53,216.447715 53,217 C53,217.556135 53.4447593,218 53.9933977,218 L59,218 L59,222 L45.9991421,222 C45.4549243,222 45,222.447715 45,223 C45,223.556135 45.4473312,224 45.9991421,224 L59,224 L59,228 L53.9933977,228 C53.4449463,228 53,228.447715 53,229 C53,229.556135 53.4447593,230 53.9933977,230 L59,230 L59,234 L53.9933977,234 C53.4449463,234 53,234.447715 53,235 C53,235.556135 53.4447593,236 53.9933977,236 L59,236 L59,240 L53.9933977,240 C53.4449463,240 53,240.447715 53,241 C53,241.556135 53.4447593,242 53.9933977,242 L59,242 L59,246 L53.9933977,246 C53.4449463,246 53,246.447715 53,247 C53,247.556135 53.4447593,248 53.9933977,248 L59,248 L59,252 L45.9991421,252 C45.4549243,252 45,252.447715 45,253 C45,253.556135 45.4473312,254 45.9991421,254 L59,254 L59,258 L53.9933977,258 C53.4449463,258 53,258.447715 53,259 C53,259.556135 53.4447593,260 53.9933977,260 L59,260 L59,264 L53.9933977,264 C53.4449463,264 53,264.447715 53,265 C53,265.556135 53.4447593,266 53.9933977,266 L59,266 L59,270 L53.9933977,270 C53.4449463,270 53,270.447715 53,271 C53,271.556135 53.4447593,272 53.9933977,272 L59,272 L59,276 L53.9933977,276 C53.4449463,276 53,276.447715 53,277 C53,277.556135 53.4447593,278 53.9933977,278 L59,278 L59,282 L45.9991421,282 C45.4549243,282 45,282.447715 45,283 C45,283.556135 45.4473312,284 45.9991421,284 L59,284 L59,288 L53.9933977,288 C53.4449463,288 53,288.447715 53,289 C53,289.556135 53.4447593,290 53.9933977,290 L59,290 L59,294 L53.9933977,294 C53.4449463,294 53,294.447715 53,295 C53,295.556135 53.4447593,296 53.9933977,296 L59,296 L59,300 L53.9933977,300 C53.4449463,300 53,300.447715 53,301 C53,301.556135 53.4447593,302 53.9933977,302 L59,302 L59,306 L53.9933977,306 C53.4449463,306 53,306.447715 53,307 C53,307.556135 53.4447593,308 53.9933977,308 L59,308 L59,312 L45.9991421,312 C45.4549243,312 45,312.447715 45,313 C45,313.556135 45.4473312,314 45.9991421,314 L59,314 L59,318 L53.9933977,318 C53.4449463,318 53,318.447715 53,319 C53,319.556135 53.4447593,320 53.9933977,320 L59,320 L59,324 L53.9933977,324 C53.4449463,324 53,324.447715 53,325 C53,325.556135 53.4447593,326 53.9933977,326 L59,326 L59,330 L53.9933977,330 C53.4449463,330 53,330.447715 53,331 C53,331.556135 53.4447593,332 53.9933977,332 L59,332 L59,336 L53.9933977,336 C53.4449463,336 53,336.447715 53,337 C53,337.556135 53.4447593,338 53.9933977,338 L59,338 L59,342 L45.9991421,342 C45.4549243,342 45,342.447715 45,343 C45,343.556135 45.4473312,344 45.9991421,344 L59,344 L59,348 L53.9933977,348 C53.4449463,348 53,348.447715 53,349 C53,349.556135 53.4447593,350 53.9933977,350 L59,350 L59,354 L53.9933977,354 C53.4449463,354 53,354.447715 53,355 C53,355.556135 53.4447593,356 53.9933977,356 L59,356 L59,360 L53.9933977,360 C53.4449463,360 53,360.447715 53,361 C53,361.556135 53.4447593,362 53.9933977,362 L59,362 L59,366 L53.9933977,366 C53.4449463,366 53,366.447715 53,367 C53,367.556135 53.4447593,368 53.9933977,368 L59,368 L59,372 L45.9991421,372 C45.4549243,372 45,372.447715 45,373 C45,373.556135 45.4473312,374 45.9991421,374 L59,374 L59,378 L53.9933977,378 C53.4449463,378 53,378.447715 53,379 C53,379.556135 53.4447593,380 53.9933977,380 L59,380 L59,384 L53.9933977,384 C53.4449463,384 53,384.447715 53,385 C53,385.556135 53.4447593,386 53.9933977,386 L59,386 L59,390 L53.9933977,390 C53.4449463,390 53,390.447715 53,391 C53,391.556135 53.4447593,392 53.9933977,392 L59,392 L59,396 L53.9933977,396 C53.4449463,396 53,396.447715 53,397 C53,397.556135 53.4447593,398 53.9933977,398 L59,398 L59,402 L45.9991421,402 C45.4549243,402 45,402.447715 45,403 C45,403.556135 45.4473312,404 45.9991421,404 L59,404 L59,408 L53.9933977,408 C53.4449463,408 53,408.447715 53,409 C53,409.556135 53.4447593,410 53.9933977,410 L59,410 L59,414 L53.9933977,414 C53.4449463,414 53,414.447715 53,415 C53,415.556135 53.4447593,416 53.9933977,416 L59,416 L59,420 L53.9933977,420 C53.4449463,420 53,420.447715 53,421 C53,421.556135 53.4447593,422 53.9933977,422 L59,422 L59,426 L53.9933977,426 C53.4449463,426 53,426.447715 53,427 C53,427.556135 53.4447593,428 53.9933977,428 L59,428 L59,432 L45.9991421,432 C45.4549243,432 45,432.447715 45,433 C45,433.556135 45.4473312,434 45.9991421,434 L59,434 L59,438 L53.9933977,438 C53.4449463,438 53,438.447715 53,439 C53,439.556135 53.4447593,440 53.9933977,440 L59,440 L59,444 L53.9933977,444 C53.4449463,444 53,444.447715 53,445 C53,445.556135 53.4447593,446 53.9933977,446 L59,446 L59,450 L53.9933977,450 C53.4449463,450 53,450.447715 53,451 C53,451.556135 53.4447593,452 53.9933977,452 L59,452 L59,456 L53.9933977,456 C53.4449463,456 53,456.447715 53,457 C53,457.556135 53.4447593,458 53.9933977,458 L59,458 L59,462 L45.9991421,462 C45.4549243,462 45,462.447715 45,463 C45,463.556135 45.4473312,464 45.9991421,464 L59,464 L59,468 L53.9933977,468 C53.4449463,468 53,468.447715 53,469 C53,469.556135 53.4447593,470 53.9933977,470 L59,470 L59,474 L53.9933977,474 C53.4449463,474 53,474.447715 53,475 C53,475.556135 53.4447593,476 53.9933977,476 L59,476 L59,480 L53.9933977,480 C53.4449463,480 53,480.447715 53,481 C53,481.556135 53.4447593,482 53.9933977,482 L59,482 L59,486 L53.9933977,486 C53.4449463,486 53,486.447715 53,487 C53,487.556135 53.4447593,488 53.9933977,488 L59,488 L59,492 L45.9991421,492 C45.4549243,492 45,492.447715 45,493 C45,493.556135 45.4473312,494 45.9991421,494 L59,494 L59,498 L53.9933977,498 C53.4449463,498 53,498.447715 53,499 C53,499.556135 53.4447593,500 53.9933977,500 L59,500 L59,504 L53.9933977,504 C53.4449463,504 53,504.447715 53,505 C53,505.556135 53.4447593,506 53.9933977,506 L59,506 L59,510 L53.9933977,510 C53.4449463,510 53,510.447715 53,511 C53,511.556135 53.4447593,512 53.9933977,512 L59,512 L59,516 L53.9933977,516 C53.4449463,516 53,516.447715 53,517 C53,517.556135 53.4447593,518 53.9933977,518 L59,518 L59,522 L45.9991421,522 C45.4549243,522 45,522.447715 45,523 C45,523.556135 45.4473312,524 45.9991421,524 L59,524 L59,528 L53.9933977,528 C53.4449463,528 53,528.447715 53,529 C53,529.556135 53.4447593,530 53.9933977,530 L59,530 L59,534 L53.9933977,534 C53.4449463,534 53,534.447715 53,535 C53,535.556135 53.4447593,536 53.9933977,536 L59,536 L59,540 L53.9933977,540 C53.4449463,540 53,540.447715 53,541 C53,541.556135 53.4447593,542 53.9933977,542 L59,542 L59,546 L53.9933977,546 C53.4449463,546 53,546.447715 53,547 C53,547.556135 53.4447593,548 53.9933977,548 L59,548 L59,552 L45.9991421,552 C45.4549243,552 45,552.447715 45,553 C45,553.556135 45.4473312,554 45.9991421,554 L59,554 L59,558 L53.9933977,558 C53.4449463,558 53,558.447715 53,559 C53,559.556135 53.4447593,560 53.9933977,560 L59,560 L59,564 L53.9933977,564 C53.4449463,564 53,564.447715 53,565 C53,565.556135 53.4447593,566 53.9933977,566 L59,566 L59,570 L53.9933977,570 C53.4449463,570 53,570.447715 53,571 C53,571.556135 53.4447593,572 53.9933977,572 L59,572 L59,576 L53.9933977,576 C53.4449463,576 53,576.447715 53,577 C53,577.556135 53.4447593,578 53.9933977,578 L59,578 L59,582 L45.9991421,582 C45.4549243,582 45,582.447715 45,583 C45,583.556135 45.4473312,584 45.9991421,584 L59,584 L59,588 L53.9933977,588 C53.4449463,588 53,588.447715 53,589 C53,589.556135 53.4447593,590 53.9933977,590 L59,590 L59,594 L53.9933977,594 C53.4449463,594 53,594.447715 53,595 C53,595.556135 53.4447593,596 53.9933977,596 L59,596 L59,600 L53.9933977,600 C53.4449463,600 53,600.447715 53,601 C53,601.556135 53.4447593,602 53.9933977,602 L59,602 L59,606 L53.9933977,606 C53.4449463,606 53,606.447715 53,607 C53,607.556135 53.4447593,608 53.9933977,608 L59,608 L59,612 L45.9991421,612 C45.4549243,612 45,612.447715 45,613 C45,613.556135 45.4473312,614 45.9991421,614 L59,614 L59,618 L53.9933977,618 C53.4449463,618 53,618.447715 53,619 C53,619.556135 53.4447593,620 53.9933977,620 L59,620 L59,624 L53.9933977,624 C53.4449463,624 53,624.447715 53,625 C53,625.556135 53.4447593,626 53.9933977,626 L59,626 L59,630 L53.9933977,630 C53.4449463,630 53,630.447715 53,631 C53,631.556135 53.4447593,632 53.9933977,632 L59,632 L59,636 L53.9933977,636 C53.4449463,636 53,636.447715 53,637 C53,637.556135 53.4447593,638 53.9933977,638 L59,638 L59,642 L45.9991421,642 C45.4549243,642 45,642.447715 45,643 C45,643.556135 45.4473312,644 45.9991421,644 L59,644 L59,648 L53.9933977,648 C53.4449463,648 53,648.447715 53,649 C53,649.556135 53.4447593,650 53.9933977,650 L59,650 L59,654 L53.9933977,654 C53.4449463,654 53,654.447715 53,655 C53,655.556135 53.4447593,656 53.9933977,656 L59,656 L59,660 L53.9933977,660 C53.4449463,660 53,660.447715 53,661 C53,661.556135 53.4447593,662 53.9933977,662 L59,662 L59,666 L53.9933977,666 C53.4449463,666 53,666.447715 53,667 C53,667.556135 53.4447593,668 53.9933977,668 L59,668 L59,672 L45.9991421,672 C45.4549243,672 45,672.447715 45,673 C45,673.556135 45.4473312,674 45.9991421,674 L59,674 L59,678 L53.9933977,678 C53.4449463,678 53,678.447715 53,679 C53,679.556135 53.4447593,680 53.9933977,680 L59,680 L59,684 L53.9933977,684 C53.4449463,684 53,684.447715 53,685 C53,685.556135 53.4447593,686 53.9933977,686 L59,686 L59,690 L53.9933977,690 C53.4449463,690 53,690.447715 53,691 C53,691.556135 53.4447593,692 53.9933977,692 L59,692 L59,696 L53.9933977,696 C53.4449463,696 53,696.447715 53,697 C53,697.556135 53.4447593,698 53.9933977,698 L59,698 L59,702 L45.9991421,702 C45.4549243,702 45,702.447715 45,703 C45,703.556135 45.4473312,704 45.9991421,704 L59,704 L59,708 L53.9933977,708 C53.4449463,708 53,708.447715 53,709 C53,709.556135 53.4447593,710 53.9933977,710 L59,710 L59,714 L53.9933977,714 C53.4449463,714 53,714.447715 53,715 C53,715.556135 53.4447593,716 53.9933977,716 L59,716 L59,720 L53.9933977,720 C53.4449463,720 53,720.447715 53,721 C53,721.556135 53.4447593,722 53.9933977,722 L59,722 L59,726 L53.9933977,726 C53.4449463,726 53,726.447715 53,727 C53,727.556135 53.4447593,728 53.9933977,728 L59,728 L59,732 L45.9991421,732 C45.4549243,732 45,732.447715 45,733 C45,733.556135 45.4473312,734 45.9991421,734 L59,734 L59,737.995929 C59,739.653492 60.3431458,741 62,741 C63.6534829,741 65,739.655032 65,737.995929 L65,734 L78.0008579,734 C78.5450757,734 79,733.552285 79,733 C79,732.443865 78.5526688,732 78.0008579,732 L65,732 L65,728 L70.0066023,728 C70.5550537,728 71,727.552285 71,727 C71,726.443865 70.5552407,726 70.0066023,726 L65,726 L65,722 L70.0066023,722 C70.5550537,722 71,721.552285 71,721 C71,720.443865 70.5552407,720 70.0066023,720 L65,720 L65,716 L70.0066023,716 C70.5550537,716 71,715.552285 71,715 C71,714.443865 70.5552407,714 70.0066023,714 L65,714 L65,710 L70.0066023,710 C70.5550537,710 71,709.552285 71,709 C71,708.443865 70.5552407,708 70.0066023,708 L65,708 L65,704 L78.0008579,704 C78.5450757,704 79,703.552285 79,703 C79,702.443865 78.5526688,702 78.0008579,702 L65,702 L65,698 L70.0066023,698 C70.5550537,698 71,697.552285 71,697 C71,696.443865 70.5552407,696 70.0066023,696 L65,696 L65,692 L70.0066023,692 C70.5550537,692 71,691.552285 71,691 C71,690.443865 70.5552407,690 70.0066023,690 L65,690 L65,686 L70.0066023,686 C70.5550537,686 71,685.552285 71,685 C71,684.443865 70.5552407,684 70.0066023,684 L65,684 L65,680 L70.0066023,680 C70.5550537,680 71,679.552285 71,679 C71,678.443865 70.5552407,678 70.0066023,678 L65,678 L65,674 L78.0008579,674 C78.5450757,674 79,673.552285 79,673 C79,672.443865 78.5526688,672 78.0008579,672 L65,672 L65,668 L70.0066023,668 C70.5550537,668 71,667.552285 71,667 C71,666.443865 70.5552407,666 70.0066023,666 L65,666 L65,662 L70.0066023,662 C70.5550537,662 71,661.552285 71,661 C71,660.443865 70.5552407,660 70.0066023,660 L65,660 L65,656 L70.0066023,656 C70.5550537,656 71,655.552285 71,655 C71,654.443865 70.5552407,654 70.0066023,654 L65,654 L65,650 L70.0066023,650 C70.5550537,650 71,649.552285 71,649 C71,648.443865 70.5552407,648 70.0066023,648 L65,648 L65,644 L78.0008579,644 C78.5450757,644 79,643.552285 79,643 C79,642.443865 78.5526688,642 78.0008579,642 L65,642 L65,638 L70.0066023,638 C70.5550537,638 71,637.552285 71,637 C71,636.443865 70.5552407,636 70.0066023,636 L65,636 L65,632 L70.0066023,632 C70.5550537,632 71,631.552285 71,631 C71,630.443865 70.5552407,630 70.0066023,630 L65,630 L65,626 L70.0066023,626 C70.5550537,626 71,625.552285 71,625 C71,624.443865 70.5552407,624 70.0066023,624 L65,624 L65,620 L70.0066023,620 C70.5550537,620 71,619.552285 71,619 C71,618.443865 70.5552407,618 70.0066023,618 L65,618 L65,614 L78.0008579,614 C78.5450757,614 79,613.552285 79,613 C79,612.443865 78.5526688,612 78.0008579,612 L65,612 L65,608 L70.0066023,608 C70.5550537,608 71,607.552285 71,607 C71,606.443865 70.5552407,606 70.0066023,606 L65,606 L65,602 L70.0066023,602 C70.5550537,602 71,601.552285 71,601 C71,600.443865 70.5552407,600 70.0066023,600 L65,600 L65,596 L70.0066023,596 C70.5550537,596 71,595.552285 71,595 C71,594.443865 70.5552407,594 70.0066023,594 L65,594 L65,590 L70.0066023,590 C70.5550537,590 71,589.552285 71,589 C71,588.443865 70.5552407,588 70.0066023,588 L65,588 L65,584 L78.0008579,584 C78.5450757,584 79,583.552285 79,583 C79,582.443865 78.5526688,582 78.0008579,582 L65,582 L65,578 L70.0066023,578 C70.5550537,578 71,577.552285 71,577 C71,576.443865 70.5552407,576 70.0066023,576 L65,576 L65,572 L70.0066023,572 C70.5550537,572 71,571.552285 71,571 C71,570.443865 70.5552407,570 70.0066023,570 L65,570 L65,566 L70.0066023,566 C70.5550537,566 71,565.552285 71,565 C71,564.443865 70.5552407,564 70.0066023,564 L65,564 L65,560 L70.0066023,560 C70.5550537,560 71,559.552285 71,559 C71,558.443865 70.5552407,558 70.0066023,558 L65,558 L65,554 L78.0008579,554 C78.5450757,554 79,553.552285 79,553 C79,552.443865 78.5526688,552 78.0008579,552 L65,552 L65,548 L70.0066023,548 C70.5550537,548 71,547.552285 71,547 C71,546.443865 70.5552407,546 70.0066023,546 L65,546 L65,542 L70.0066023,542 C70.5550537,542 71,541.552285 71,541 C71,540.443865 70.5552407,540 70.0066023,540 L65,540 L65,536 L70.0066023,536 C70.5550537,536 71,535.552285 71,535 C71,534.443865 70.5552407,534 70.0066023,534 L65,534 L65,530 L70.0066023,530 C70.5550537,530 71,529.552285 71,529 C71,528.443865 70.5552407,528 70.0066023,528 L65,528 L65,524 L78.0008579,524 C78.5450757,524 79,523.552285 79,523 C79,522.443865 78.5526688,522 78.0008579,522 L65,522 L65,518 L70.0066023,518 C70.5550537,518 71,517.552285 71,517 C71,516.443865 70.5552407,516 70.0066023,516 L65,516 L65,512 L70.0066023,512 C70.5550537,512 71,511.552285 71,511 C71,510.443865 70.5552407,510 70.0066023,510 L65,510 L65,506 L70.0066023,506 C70.5550537,506 71,505.552285 71,505 C71,504.443865 70.5552407,504 70.0066023,504 L65,504 L65,500 L70.0066023,500 C70.5550537,500 71,499.552285 71,499 C71,498.443865 70.5552407,498 70.0066023,498 L65,498 L65,494 L78.0008579,494 C78.5450757,494 79,493.552285 79,493 C79,492.443865 78.5526688,492 78.0008579,492 L65,492 L65,488 L70.0066023,488 C70.5550537,488 71,487.552285 71,487 C71,486.443865 70.5552407,486 70.0066023,486 L65,486 L65,482 L70.0066023,482 C70.5550537,482 71,481.552285 71,481 C71,480.443865 70.5552407,480 70.0066023,480 L65,480 L65,476 L70.0066023,476 C70.5550537,476 71,475.552285 71,475 C71,474.443865 70.5552407,474 70.0066023,474 L65,474 L65,470 L70.0066023,470 C70.5550537,470 71,469.552285 71,469 C71,468.443865 70.5552407,468 70.0066023,468 L65,468 L65,464 L78.0008579,464 C78.5450757,464 79,463.552285 79,463 C79,462.443865 78.5526688,462 78.0008579,462 L65,462 L65,458 L70.0066023,458 C70.5550537,458 71,457.552285 71,457 C71,456.443865 70.5552407,456 70.0066023,456 L65,456 L65,452 L70.0066023,452 C70.5550537,452 71,451.552285 71,451 C71,450.443865 70.5552407,450 70.0066023,450 L65,450 L65,446 L70.0066023,446 C70.5550537,446 71,445.552285 71,445 C71,444.443865 70.5552407,444 70.0066023,444 L65,444 L65,440 L70.0066023,440 C70.5550537,440 71,439.552285 71,439 C71,438.443865 70.5552407,438 70.0066023,438 L65,438 L65,434 L78.0008579,434 C78.5450757,434 79,433.552285 79,433 C79,432.443865 78.5526688,432 78.0008579,432 L65,432 L65,428 L70.0066023,428 C70.5550537,428 71,427.552285 71,427 C71,426.443865 70.5552407,426 70.0066023,426 L65,426 L65,422 L70.0066023,422 C70.5550537,422 71,421.552285 71,421 C71,420.443865 70.5552407,420 70.0066023,420 L65,420 L65,416 L70.0066023,416 C70.5550537,416 71,415.552285 71,415 C71,414.443865 70.5552407,414 70.0066023,414 L65,414 L65,410 L70.0066023,410 C70.5550537,410 71,409.552285 71,409 C71,408.443865 70.5552407,408 70.0066023,408 L65,408 L65,404 L78.0008579,404 C78.5450757,404 79,403.552285 79,403 C79,402.443865 78.5526688,402 78.0008579,402 L65,402 L65,398 L70.0066023,398 C70.5550537,398 71,397.552285 71,397 C71,396.443865 70.5552407,396 70.0066023,396 L65,396 L65,392 L70.0066023,392 C70.5550537,392 71,391.552285 71,391 C71,390.443865 70.5552407,390 70.0066023,390 L65,390 L65,386 L70.0066023,386 C70.5550537,386 71,385.552285 71,385 C71,384.443865 70.5552407,384 70.0066023,384 L65,384 L65,380 L70.0066023,380 C70.5550537,380 71,379.552285 71,379 C71,378.443865 70.5552407,378 70.0066023,378 L65,378 L65,374 L78.0008579,374 C78.5450757,374 79,373.552285 79,373 C79,372.443865 78.5526688,372 78.0008579,372 L65,372 L65,368 L70.0066023,368 C70.5550537,368 71,367.552285 71,367 C71,366.443865 70.5552407,366 70.0066023,366 L65,366 L65,362 L70.0066023,362 C70.5550537,362 71,361.552285 71,361 C71,360.443865 70.5552407,360 70.0066023,360 L65,360 L65,356 L70.0066023,356 C70.5550537,356 71,355.552285 71,355 C71,354.443865 70.5552407,354 70.0066023,354 L65,354 L65,350 L70.0066023,350 C70.5550537,350 71,349.552285 71,349 C71,348.443865 70.5552407,348 70.0066023,348 L65,348 L65,344 L78.0008579,344 C78.5450757,344 79,343.552285 79,343 C79,342.443865 78.5526688,342 78.0008579,342 L65,342 L65,338 L70.0066023,338 C70.5550537,338 71,337.552285 71,337 C71,336.443865 70.5552407,336 70.0066023,336 L65,336 L65,332 L70.0066023,332 C70.5550537,332 71,331.552285 71,331 C71,330.443865 70.5552407,330 70.0066023,330 L65,330 L65,326 L70.0066023,326 C70.5550537,326 71,325.552285 71,325 C71,324.443865 70.5552407,324 70.0066023,324 L65,324 L65,320 L70.0066023,320 C70.5550537,320 71,319.552285 71,319 C71,318.443865 70.5552407,318 70.0066023,318 L65,318 L65,314 L78.0008579,314 C78.5450757,314 79,313.552285 79,313 C79,312.443865 78.5526688,312 78.0008579,312 L65,312 L65,308 L70.0066023,308 C70.5550537,308 71,307.552285 71,307 C71,306.443865 70.5552407,306 70.0066023,306 L65,306 L65,302 L70.0066023,302 C70.5550537,302 71,301.552285 71,301 C71,300.443865 70.5552407,300 70.0066023,300 L65,300 L65,296 L70.0066023,296 C70.5550537,296 71,295.552285 71,295 C71,294.443865 70.5552407,294 70.0066023,294 L65,294 L65,290 L70.0066023,290 C70.5550537,290 71,289.552285 71,289 C71,288.443865 70.5552407,288 70.0066023,288 L65,288 L65,284 L78.0008579,284 C78.5450757,284 79,283.552285 79,283 C79,282.443865 78.5526688,282 78.0008579,282 L65,282 L65,278 L70.0066023,278 C70.5550537,278 71,277.552285 71,277 C71,276.443865 70.5552407,276 70.0066023,276 L65,276 L65,272 L70.0066023,272 C70.5550537,272 71,271.552285 71,271 C71,270.443865 70.5552407,270 70.0066023,270 L65,270 L65,266 L70.0066023,266 C70.5550537,266 71,265.552285 71,265 C71,264.443865 70.5552407,264 70.0066023,264 L65,264 L65,260 L70.0066023,260 C70.5550537,260 71,259.552285 71,259 C71,258.443865 70.5552407,258 70.0066023,258 L65,258 L65,254 L78.0008579,254 C78.5450757,254 79,253.552285 79,253 C79,252.443865 78.5526688,252 78.0008579,252 L65,252 L65,248 L70.0066023,248 C70.5550537,248 71,247.552285 71,247 C71,246.443865 70.5552407,246 70.0066023,246 L65,246 L65,242 L70.0066023,242 C70.5550537,242 71,241.552285 71,241 C71,240.443865 70.5552407,240 70.0066023,240 L65,240 L65,236 L70.0066023,236 C70.5550537,236 71,235.552285 71,235 C71,234.443865 70.5552407,234 70.0066023,234 L65,234 L65,230 L70.0066023,230 C70.5550537,230 71,229.552285 71,229 C71,228.443865 70.5552407,228 70.0066023,228 L65,228 L65,224 L78.0008579,224 C78.5450757,224 79,223.552285 79,223 C79,222.443865 78.5526688,222 78.0008579,222 L65,222 L65,218 L70.0066023,218 C70.5550537,218 71,217.552285 71,217 C71,216.443865 70.5552407,216 70.0066023,216 L65,216 L65,212 L70.0066023,212 C70.5550537,212 71,211.552285 71,211 C71,210.443865 70.5552407,210 70.0066023,210 L65,210 L65,206 L70.0066023,206 C70.5550537,206 71,205.552285 71,205 C71,204.443865 70.5552407,204 70.0066023,204 L65,204 L65,200 L70.0066023,200 C70.5550537,200 71,199.552285 71,199 C71,198.443865 70.5552407,198 70.0066023,198 L65,198 L65,194 L78.0008579,194 C78.5450757,194 79,193.552285 79,193 C79,192.443865 78.5526688,192 78.0008579,192 L65,192 L65,188 L70.0066023,188 C70.5550537,188 71,187.552285 71,187 C71,186.443865 70.5552407,186 70.0066023,186 L65,186 L65,182 L70.0066023,182 C70.5550537,182 71,181.552285 71,181 C71,180.443865 70.5552407,180 70.0066023,180 L65,180 L65,176 L70.0066023,176 C70.5550537,176 71,175.552285 71,175 C71,174.443865 70.5552407,174 70.0066023,174 L65,174 L65,170 L70.0066023,170 C70.5550537,170 71,169.552285 71,169 C71,168.443865 70.5552407,168 70.0066023,168 L65,168 L65,164 L78.0008579,164 C78.5450757,164 79,163.552285 79,163 C79,162.443865 78.5526688,162 78.0008579,162 L65,162 L65,158 L70.0066023,158 C70.5550537,158 71,157.552285 71,157 C71,156.443865 70.5552407,156 70.0066023,156 L65,156 L65,152 L70.0066023,152 C70.5550537,152 71,151.552285 71,151 C71,150.443865 70.5552407,150 70.0066023,150 L65,150 L65,146 L70.0066023,146 C70.5550537,146 71,145.552285 71,145 C71,144.443865 70.5552407,144 70.0066023,144 L65,144 L65,140 L70.0066023,140 C70.5550537,140 71,139.552285 71,139 C71,138.443865 70.5552407,138 70.0066023,138 L65,138 L65,134 L78.0008579,134 C78.5450757,134 79,133.552285 79,133 C79,132.443865 78.5526688,132 78.0008579,132 L65,132 L65,128 L70.0066023,128 C70.5550537,128 71,127.552285 71,127 C71,126.443865 70.5552407,126 70.0066023,126 L65,126 L65,122 L70.0066023,122 C70.5550537,122 71,121.552285 71,121 C71,120.443865 70.5552407,120 70.0066023,120 L65,120 L65,116 L70.0066023,116 C70.5550537,116 71,115.552285 71,115 C71,114.443865 70.5552407,114 70.0066023,114 L65,114 L65,110 L70.0066023,110 C70.5550537,110 71,109.552285 71,109 C71,108.443865 70.5552407,108 70.0066023,108 L65,108 L65,104 L78.0008579,104 C78.5450757,104 79,103.552285 79,103 C79,102.443865 78.5526688,102 78.0008579,102 L65,102 L65,98 L70.0066023,98 C70.5550537,98 71,97.5522847 71,97 C71,96.4438648 70.5552407,96 70.0066023,96 L65,96 L65,92 L70.0066023,92 C70.5550537,92 71,91.5522847 71,91 C71,90.4438648 70.5552407,90 70.0066023,90 L65,90 L65,86 L70.0066023,86 C70.5550537,86 71,85.5522847 71,85 C71,84.4438648 70.5552407,84 70.0066023,84 L65,84 L65,80 L70.0066023,80 C70.5550537,80 71,79.5522847 71,79 C71,78.4438648 70.5552407,78 70.0066023,78 L65,78 L65,74 L78.0008579,74 C78.5450757,74 79,73.5522847 79,73 C79,72.4438648 78.5526688,72 78.0008579,72 L65,72 L65,68 L70.0066023,68 C70.5550537,68 71,67.5522847 71,67 C71,66.4438648 70.5552407,66 70.0066023,66 L65,66 L65,62 L70.0066023,62 C70.5550537,62 71,61.5522847 71,61 C71,60.4438648 70.5552407,60 70.0066023,60 L65,60 L65,56 L70.0066023,56 C70.5550537,56 71,55.5522847 71,55 C71,54.4438648 70.5552407,54 70.0066023,54 L65,54 L65,50 L70.0066023,50 C70.5550537,50 71,49.5522847 71,49 C71,48.4438648 70.5552407,48 70.0066023,48 L65,48 L65,44 L78.0008579,44 C78.5450757,44 79,43.5522847 79,43 C79,42.4438648 78.5526688,42 78.0008579,42 L65,42 L65,38 L70.0066023,38 C70.5550537,38 71,37.5522847 71,37 C71,36.4438648 70.5552407,36 70.0066023,36 L65,36 Z" id="Combined-Shape"></path>
            <text id="10" font-family="Roboto-Regular, Roboto" font-size="20" font-weight="normal">
                <tspan x="11.5390625" y="710">10</tspan>
            </text>
            <text id="0" font-family="Roboto-Regular, Roboto" font-size="20" font-weight="normal">
                <tspan x="22.7695312" y="679">0</tspan>
            </text>
            <text id="10" font-family="Roboto-Regular, Roboto" font-size="20" font-weight="normal">
                <tspan x="11.5390625" y="649">10</tspan>
            </text>
            <text id="20" font-family="Roboto-Regular, Roboto" font-size="20" font-weight="normal">
                <tspan x="11.5390625" y="619">20</tspan>
            </text>
            <text id="30" font-family="Roboto-Regular, Roboto" font-size="20" font-weight="normal">
                <tspan x="11.5390625" y="589">30</tspan>
            </text>
            <text id="40" font-family="Roboto-Regular, Roboto" font-size="20" font-weight="normal">
                <tspan x="11.5390625" y="559">40</tspan>
            </text>
            <text id="50" font-family="Roboto-Regular, Roboto" font-size="20" font-weight="normal">
                <tspan x="11.5390625" y="529">50</tspan>
            </text>
            <text id="60" font-family="Roboto-Regular, Roboto" font-size="20" font-weight="normal">
                <tspan x="11.5390625" y="499">60</tspan>
            </text>
            <text id="70" font-family="Roboto-Regular, Roboto" font-size="20" font-weight="normal">
                <tspan x="11.5390625" y="469">70</tspan>
            </text>
            <text id="80" font-family="Roboto-Regular, Roboto" font-size="20" font-weight="normal">
                <tspan x="11.5390625" y="439">80</tspan>
            </text>
            <text id="90" font-family="Roboto-Regular, Roboto" font-size="20" font-weight="normal">
                <tspan x="11.5390625" y="409">90</tspan>
            </text>
            <text id="100" font-family="Roboto-Regular, Roboto" font-size="20" font-weight="normal">
                <tspan x="0.30859375" y="379">100</tspan>
            </text>
            <text id="110" font-family="Roboto-Regular, Roboto" font-size="20" font-weight="normal">
                <tspan x="0.30859375" y="349">110</tspan>
            </text>
            <text id="120" font-family="Roboto-Regular, Roboto" font-size="20" font-weight="normal">
                <tspan x="0.30859375" y="319">120</tspan>
            </text>
            <text id="130" font-family="Roboto-Regular, Roboto" font-size="20" font-weight="normal">
                <tspan x="0.30859375" y="289">130</tspan>
            </text>
            <text id="140" font-family="Roboto-Regular, Roboto" font-size="20" font-weight="normal">
                <tspan x="0.30859375" y="259">140</tspan>
            </text>
            <text id="150" font-family="Roboto-Regular, Roboto" font-size="20" font-weight="normal">
                <tspan x="0.30859375" y="229">150</tspan>
            </text>
            <text id="160" font-family="Roboto-Regular, Roboto" font-size="20" font-weight="normal">
                <tspan x="0.30859375" y="199">160</tspan>
            </text>
            <text id="170" font-family="Roboto-Regular, Roboto" font-size="20" font-weight="normal">
                <tspan x="0.30859375" y="169">170</tspan>
            </text>
            <text id="180" font-family="Roboto-Regular, Roboto" font-size="20" font-weight="normal">
                <tspan x="0.30859375" y="139">180</tspan>
            </text>
            <text id="190" font-family="Roboto-Regular, Roboto" font-size="20" font-weight="normal">
                <tspan x="0.30859375" y="109">190</tspan>
            </text>
            <text id="200" font-family="Roboto-Regular, Roboto" font-size="20" font-weight="normal">
                <tspan x="0.30859375" y="79">200</tspan>
            </text>
            <text id="210" font-family="Roboto-Regular, Roboto" font-size="20" font-weight="normal">
                <tspan x="0.30859375" y="49">210</tspan>
            </text>
            <text id="220" font-family="Roboto-Regular, Roboto" font-size="20" font-weight="normal">
                <tspan x="0.30859375" y="19">220</tspan>
            </text>
            <text id="20" font-family="Roboto-Regular, Roboto" font-size="20" font-weight="normal">
                <tspan x="12.5390625" y="739">20</tspan>
            </text>
        </g>
    </g>
</svg>